<?xml version="1.0" encoding="UTF-8" standalone="no"?>
<svg
   xmlns:dc="http://purl.org/dc/elements/1.1/"
   xmlns:cc="http://creativecommons.org/ns#"
   xmlns:rdf="http://www.w3.org/1999/02/22-rdf-syntax-ns#"
   xmlns:svg="http://www.w3.org/2000/svg"
   xmlns="http://www.w3.org/2000/svg"
   xmlns:sodipodi="http://sodipodi.sourceforge.net/DTD/sodipodi-0.dtd"
   xmlns:inkscape="http://www.inkscape.org/namespaces/inkscape"
   sodipodi:docname="flottlogo.svg"
   inkscape:version="1.0 (4035a4fb49, 2020-05-01)"
   id="svg8"
   version="1.1"
   viewBox="2.7755576e-17 0 500.00001 58.585822"
   height="58.585823mm"
   width="500mm">
  <defs
     id="defs2" />
  <sodipodi:namedview
     inkscape:guide-bbox="true"
     showguides="true"
     inkscape:window-maximized="1"
     inkscape:window-y="-8"
     inkscape:window-x="-8"
     inkscape:window-height="1057"
     inkscape:window-width="1846"
     showgrid="false"
     inkscape:document-rotation="0"
     inkscape:current-layer="g132"
     inkscape:document-units="mm"
     inkscape:cy="342.24116"
     inkscape:cx="938.54412"
     inkscape:zoom="0.7"
     inkscape:pageshadow="2"
     inkscape:pageopacity="0.0"
     borderopacity="1.0"
     bordercolor="#666666"
     pagecolor="#ffffff"
     id="base"
     fit-margin-left="6.7"
     fit-margin-right="6.7"
     lock-margins="false"
     fit-margin-top="6.7"
     fit-margin-bottom="6.7"
     scale-x="1"
     viewbox-x="0"
     viewbox-width="205.0089" />
  <metadata
     id="metadata5">
    <rdf:RDF>
      <cc:Work
         rdf:about="">
        <dc:format>image/svg+xml</dc:format>
        <dc:type
           rdf:resource="http://purl.org/dc/dcmitype/StillImage" />
        <dc:title />
      </cc:Work>
    </rdf:RDF>
  </metadata>
  <g
     id="layer1"
     inkscape:groupmode="layer"
     inkscape:label="Layer 1"
     transform="translate(-4.0075103,-88.776685)">
    <g
       id="g77">
      <g
         transform="matrix(5.8327017,0,0,5.8327017,-265.91626,-614.30601)"
         id="g132">
        <path
           d="m 88.712885,121.85954 v 7.40831 h -2.05316 l -2.815158,-3.36549 v 3.36549 h -2.434159 v -7.40831 h 2.053161 l 2.815157,3.36549 v -3.36549 z"
           style="font-size:10.5833px;line-height:1.25;font-family:Montserrat;-inkscape-font-specification:Montserrat;stroke-width:0.264583"
           id="path18" />
        <path
           d="m 94.826725,125.36262 h 2.169576 v 3.13265 q -0.656164,0.45508 -1.523995,0.6985 -0.86783,0.24342 -1.703911,0.24342 -1.18533,0 -2.127243,-0.48684 -0.941914,-0.49741 -1.481662,-1.37583 -0.529165,-0.88899 -0.529165,-2.01082 0,-1.12183 0.529165,-2.00025 0.539748,-0.88899 1.492245,-1.37582 0.96308,-0.49742 2.169576,-0.49742 1.09008,0 1.947328,0.37042 0.86783,0.35983 1.439328,1.05833 l -1.598078,1.40757 q -0.698498,-0.81491 -1.661578,-0.81491 -0.825497,0 -1.312329,0.49742 -0.486832,0.49741 -0.486832,1.35466 0,0.83608 0.476249,1.34408 0.486831,0.508 1.291162,0.508 0.476249,0 0.910164,-0.17992 z"
           style="font-size:10.5833px;line-height:1.25;font-family:Montserrat;-inkscape-font-specification:Montserrat;stroke-width:0.264583"
           id="path20" />
        <rect
           class="d"
           style="fill:#000000;stroke-width:0.574603"
           id="rect85"
           width="4.9959998"
           height="4.9386668"
           x="75.212044"
           y="121.85954" />
        <rect
           class="c"
           y="121.85954"
           x="98.070839"
           height="4.9386668"
           width="4.9959998"
           id="rect96"
           style="fill:#000000;stroke-width:0.574603" />
        <rect
           class="b"
           y="121.85954"
           x="72.714043"
           height="2.4695001"
           width="7.494"
           id="rect107"
           style="fill:#000000;stroke-width:0.497637" />
        <rect
           class="a"
           style="fill:#000000;stroke-width:0.497636"
           id="rect107-1"
           width="7.494"
           height="2.4695001"
           x="98.070839"
           y="121.85954" />
        <rect
           y="121.85954"
           x="98.070839"
           height="7.4083061"
           width="2.4976602"
           id="rect850"
           style="fill:#000000;stroke-width:0.0453621" />
        <rect
           y="121.85954"
           x="77.710388"
           height="7.4083061"
           width="2.4976585"
           id="rect858"
           style="fill:#000000;stroke-width:0.0453621" />
      </g>
    </g>
  </g>
</svg>
